HIERARCHY
ROOT joint_Root
{
	OFFSET 0.0 0.0 0.0
	CHANNELS 6 Xposition Yposition Zposition Zrotation Xrotation Yrotation 
	JOINT Hips
	{
		OFFSET -0.726466 93.3139 -2.00062
		CHANNELS 6 Xposition Yposition Zposition Zrotation Xrotation Yrotation 
		JOINT Spine
		{
			OFFSET 15.7357 0.0 0.0
			CHANNELS 6 Xposition Yposition Zposition Zrotation Xrotation Yrotation 
			JOINT Chest
			{
				OFFSET 8.98455 -0.406207 0.0
				CHANNELS 6 Xposition Yposition Zposition Zrotation Xrotation Yrotation 
				JOINT Neck
				{
					OFFSET 16.3773 0.0 0.0
					CHANNELS 6 Xposition Yposition Zposition Zrotation Xrotation Yrotation 
					JOINT Head
					{
						OFFSET 6.45672 0.0 0.0
						CHANNELS 6 Xposition Yposition Zposition Zrotation Xrotation Yrotation 
						End Site
						{
							OFFSET 0.0 0.0 0.0
						}
					}
				}
				JOINT Shoulder_L
				{
					OFFSET 12.9942 -0.242716 4.98039
					CHANNELS 6 Xposition Yposition Zposition Zrotation Xrotation Yrotation 
					JOINT UpperArm_L
					{
						OFFSET 5.34809 0.0 0.0
						CHANNELS 6 Xposition Yposition Zposition Zrotation Xrotation Yrotation 
						JOINT LowerArm_L
						{
							OFFSET 24.3286 1.87007e-05 0.0
							CHANNELS 6 Xposition Yposition Zposition Zrotation Xrotation Yrotation 
							JOINT Hand_L
							{
								OFFSET 22.2916 0.0 0.0
								CHANNELS 6 Xposition Yposition Zposition Zrotation Xrotation Yrotation 
								End Site
								{
									OFFSET 0.0 0.0 0.0
								}
							}
						}
					}
				}
				JOINT Shoulder_R
				{
					OFFSET 12.9945 -0.242716 -4.98039
					CHANNELS 6 Xposition Yposition Zposition Zrotation Xrotation Yrotation 
					JOINT UpperArm_R
					{
						OFFSET -5.34813 0.0 0.0
						CHANNELS 6 Xposition Yposition Zposition Zrotation Xrotation Yrotation 
						JOINT LowerArm_R
						{
							OFFSET -24.3289 0.000322201 0.0
							CHANNELS 6 Xposition Yposition Zposition Zrotation Xrotation Yrotation 
							JOINT Hand_R
							{
								OFFSET -22.2915 -0.000108084 0.0
								CHANNELS 6 Xposition Yposition Zposition Zrotation Xrotation Yrotation 
								End Site
								{
									OFFSET 0.0 0.0 0.0
								}
							}
						}
					}
				}
			}
		}
		JOINT UpperLeg_L
		{
			OFFSET -2.19248 -6.46944 0.0
			CHANNELS 6 Xposition Yposition Zposition Zrotation Xrotation Yrotation 
			JOINT LowerLeg_L
			{
				OFFSET 39.0811 0.0 -1.23785e-05
				CHANNELS 6 Xposition Yposition Zposition Zrotation Xrotation Yrotation 
				JOINT Foot_L
				{
					OFFSET 40.9854 0.0 -1.26872e-05
					CHANNELS 6 Xposition Yposition Zposition Zrotation Xrotation Yrotation 
					JOINT Toes_L
					{
						OFFSET 11.7543 0.0 0.0
						CHANNELS 6 Xposition Yposition Zposition Zrotation Xrotation Yrotation 
						End Site
						{
							OFFSET 0.0 0.0 0.0
						}
					}
				}
			}
		}
		JOINT UpperLeg_R
		{
			OFFSET -2.19251 6.46944 0.0
			CHANNELS 6 Xposition Yposition Zposition Zrotation Xrotation Yrotation 
			JOINT LowerLeg_R
			{
				OFFSET -39.0811 -0.00228153 -0.0401928
				CHANNELS 6 Xposition Yposition Zposition Zrotation Xrotation Yrotation 
				JOINT Foot_R
				{
					OFFSET -40.9854 0.0 0.0
					CHANNELS 6 Xposition Yposition Zposition Zrotation Xrotation Yrotation 
					JOINT Toes_R
					{
						OFFSET -11.7543 0.0 0.0
						CHANNELS 6 Xposition Yposition Zposition Zrotation Xrotation Yrotation 
						End Site
						{
							OFFSET 0.0 0.0 0.0
						}
					}
				}
			}
		}
	}
}
MOTION
Frames:	4
Frame Time:	0.0333333
0.000000 0.000000 0.000000 0.000000 0.000000 -0.000000 -1.520130 83.698300 49.363400 -89.463900 -4.857630 175.824000 15.735700 0.000005 -0.000001 72.105200 83.376100 -71.980800 8.984550 -0.406207 -0.000000 4.855120 -4.065990 0.421053 16.377300 -0.000001 -0.000001 -3.038260 -1.661770 1.281600 6.456720 -0.000001 -0.000000 -0.153521 1.700780 -2.057030 12.994200 -0.242716 4.980390 -88.953800 -3.231320 -72.044000 5.348090 -0.000007 -0.000001 -73.721800 21.183700 -19.585500 24.328600 0.000019 0.000005 2.295350 -0.433098 -100.851000 22.291600 -0.000001 0.000005 0.401809 5.638090 -14.002700 12.994500 -0.242716 -4.980390 88.471000 4.108610 -69.561200 -5.348130 -0.000001 -0.000004 -71.472000 30.911800 15.475000 -24.328900 0.000322 -0.000009 2.164680 1.255940 -59.872800 -22.291500 -0.000108 -0.000004 9.177620 5.647960 -14.824200 -2.192480 -6.469440 -0.000000 179.393000 -3.138990 -7.144580 39.081100 -0.000007 -0.000012 0.125719 -0.119848 46.368900 40.985400 -0.000006 -0.000013 7.497870 -1.073990 -88.456500 11.754300 -0.000000 0.000003 -0.956605 -1.099910 -21.819600 -2.192510 6.469440 -0.000001 -173.354000 9.261440 133.208000 -39.081100 -0.002282 -0.040193 -0.506175 -0.323842 122.432000 -40.985400 0.000008 0.000006 8.244980 -10.510100 -47.455000 -11.754300 -0.000006 -0.000006 -0.020186 -0.168318 -23.450300
0.000000 0.000000 0.000000 0.000000 0.000000 -0.000000 -0.463121 86.910900 37.632100 -86.326600 -7.920440 174.581000 15.735700 0.000005 -0.000001 54.721600 83.237500 -53.031900 8.984550 -0.406207 -0.000000 3.421240 -7.866440 3.615090 16.377300 -0.000001 -0.000001 -2.641440 -1.657440 1.036900 6.456720 -0.000001 -0.000000 0.354950 4.501650 -3.934740 12.994200 -0.242716 4.980390 -88.603700 -4.592790 -73.068600 5.348090 -0.000007 -0.000001 -73.973300 21.548700 -21.956400 24.328600 0.000019 0.000005 -5.126970 1.583000 -107.079000 22.291600 -0.000001 0.000005 3.526770 5.638130 -13.959300 12.994500 -0.242716 -4.980390 88.969400 2.455610 -67.216500 -5.348130 -0.000001 -0.000004 -71.631300 33.892700 21.720300 -24.328900 0.000322 -0.000009 2.746400 1.286100 -64.936200 -22.291500 -0.000108 -0.000004 6.530860 5.648660 -14.883600 -2.192480 -6.469440 -0.000000 -174.600000 -1.595450 1.837380 39.081100 -0.000007 -0.000012 0.028374 -0.039669 35.573800 40.985400 -0.000006 -0.000013 5.018410 3.767380 -70.441700 11.754300 -0.000000 0.000003 -0.126543 -0.506158 -37.851000 -2.192510 6.469440 -0.000001 -169.353000 8.115710 130.688000 -39.081100 -0.002282 -0.040193 -0.235055 -0.077176 107.920000 -40.985400 0.000008 0.000006 5.074700 -10.996800 -56.228800 -11.754300 -0.000006 -0.000006 -0.018555 -0.159149 -23.072700
0.000000 0.000000 0.000000 0.000000 0.000000 -0.000000 0.243571 90.250400 26.294200 -84.808900 -8.122370 173.311000 15.735700 0.000005 -0.000001 46.029500 83.246100 -43.584700 8.984550 -0.406207 -0.000000 2.192160 -9.490900 5.075660 16.377300 -0.000001 -0.000001 -2.644680 -1.387220 1.332870 6.456720 -0.000001 -0.000000 0.715641 5.643470 -4.476910 12.994200 -0.242716 4.980390 -88.206600 -5.746560 -72.635900 5.348090 -0.000007 -0.000001 -73.001600 22.844400 -23.918900 24.328600 0.000019 0.000005 -5.275490 2.126150 -111.900000 22.291600 -0.000001 0.000005 2.188620 5.627060 -13.084300 12.994500 -0.242716 -4.980390 89.819300 0.415178 -66.480000 -5.348130 -0.000001 -0.000004 -73.449400 32.608600 27.516400 -24.328900 0.000322 -0.000009 3.057540 1.204380 -68.526900 -22.291500 -0.000108 -0.000004 5.848830 5.645790 -14.625100 -2.192480 -6.469440 -0.000000 -169.681000 -5.917660 7.915350 39.081100 -0.000007 -0.000012 0.021473 -0.042941 26.567500 40.985400 -0.000006 -0.000013 2.420560 9.922830 -46.165200 11.754300 -0.000000 0.000003 -0.208476 -0.659011 -44.886900 -2.192510 6.469440 -0.000001 -168.456000 4.785420 130.731000 -39.081100 -0.002282 -0.040193 -0.054867 0.001089 88.844700 -40.985400 0.000008 0.000006 4.819220 -12.550300 -60.639600 -11.754300 -0.000006 -0.000006 -0.019911 -0.166794 -23.387500
0.000000 0.000000 0.000000 0.000000 0.000000 -0.000000 0.687811 92.606700 15.213900 -84.634900 -6.629640 172.816000 15.735700 0.000005 -0.000001 43.558100 83.343500 -40.921700 8.984550 -0.406207 -0.000000 1.664620 -9.782980 5.420500 16.377300 -0.000001 -0.000001 -3.149950 -0.926947 1.839030 6.456720 -0.000001 -0.000000 1.374050 6.129830 -4.670660 12.994200 -0.242716 4.980390 -87.707600 -7.092270 -72.036500 5.348090 -0.000007 -0.000001 -72.759300 24.270700 -24.524700 24.328600 0.000019 0.000005 -3.802000 1.817540 -115.512000 22.291600 -0.000001 0.000005 0.436005 5.601280 -11.415400 12.994500 -0.242716 -4.980390 90.808900 -1.896510 -66.892700 -5.348130 -0.000001 -0.000004 -75.236900 29.065100 32.120300 -24.328900 0.000322 -0.000009 3.007130 0.963985 -72.257900 -22.291500 -0.000108 -0.000004 5.619920 5.637900 -13.945600 -2.192480 -6.469440 -0.000000 -166.635000 -9.188150 13.649500 39.081100 -0.000007 -0.000012 0.041570 -0.105581 21.491100 40.985400 -0.000006 -0.000013 -1.102830 8.883780 -32.349800 11.754300 -0.000000 0.000003 -0.007374 -0.082854 -19.950100 -2.192510 6.469440 -0.000001 -169.876000 1.535320 134.213000 -39.081100 -0.002282 -0.040193 0.050030 -0.020528 66.350400 -40.985400 0.000008 0.000006 5.443890 -12.353100 -63.927900 -11.754300 -0.000006 -0.000006 -0.019381 -0.163835 -23.265600
